<svg width="60" height="60" viewBox="0 0 60 60" fill="none" xmlns="http://www.w3.org/2000/svg">
<path d="M7.5 11.25H52.5C53.4946 11.25 54.4484 11.6451 55.1516 12.3483C55.8549 13.0516 56.25 14.0054 56.25 15C56.25 15.9946 55.8549 16.9484 55.1516 17.6516C54.4484 18.3549 53.4946 18.75 52.5 18.75H7.5C6.50544 18.75 5.55161 18.3549 4.84835 17.6516C4.14509 16.9484 3.75 15.9946 3.75 15C3.75 14.0054 4.14509 13.0516 4.84835 12.3483C5.55161 11.6451 6.50544 11.25 7.5 11.25ZM7.5 26.25H52.5C53.4946 26.25 54.4484 26.6451 55.1516 27.3484C55.8549 28.0516 56.25 29.0054 56.25 30C56.25 30.9946 55.8549 31.9484 55.1516 32.6516C54.4484 33.3549 53.4946 33.75 52.5 33.75H7.5C6.50544 33.75 5.55161 33.3549 4.84835 32.6516C4.14509 31.9484 3.75 30.9946 3.75 30C3.75 29.0054 4.14509 28.0516 4.84835 27.3484C5.55161 26.6451 6.50544 26.25 7.5 26.25ZM7.5 41.25H52.5C53.4946 41.25 54.4484 41.6451 55.1516 42.3484C55.8549 43.0516 56.25 44.0054 56.25 45C56.25 45.9946 55.8549 46.9484 55.1516 47.6516C54.4484 48.3549 53.4946 48.75 52.5 48.75H7.5C6.50544 48.75 5.55161 48.3549 4.84835 47.6516C4.14509 46.9484 3.75 45.9946 3.75 45C3.75 44.0054 4.14509 43.0516 4.84835 42.3484C5.55161 41.6451 6.50544 41.25 7.5 41.25Z" fill="white"/>
</svg>
