<svg width="30" height="25" viewBox="0 0 30 25" fill="none" xmlns="http://www.w3.org/2000/svg">
<path fill-rule="evenodd" clip-rule="evenodd" d="M0 11.5C0 5.14718 6.7342 0 15 0C23.2658 0 30 5.14718 30 11.5C30 17.8528 23.2658 23 15 23C14.3124 23 13.6247 22.958 12.9477 22.8842L9.73976 24.8295C9.53897 24.9269 9.28798 25 9.06209 25C8.88639 25 8.6856 24.9513 8.50991 24.8782C8.10832 24.7078 7.83223 24.3425 7.75694 23.9285L7.32903 21.3709C2.93818 19.3748 0 15.6858 0 11.5ZM7.68565 20.0559L8.45971 19.8858L9.11229 23.6119L13.2787 21.2496L13.297 21.5866C13.8566 21.6159 14.6893 21.6552 15 21.6552C22.4878 21.6552 28.59 17.1109 28.59 11.5C28.59 5.88911 22.4878 1.34476 15 1.34476C7.51216 1.34476 1.41005 5.88911 1.41005 11.5C1.41005 15.0752 3.90773 18.2463 7.68565 20.0559ZM6 11.3623C6 12.6773 7.07926 13.7245 8.38441 13.7245C9.71466 13.7245 10.7688 12.6773 10.7688 11.3623C10.7688 10.0472 9.68956 9 8.38441 9C7.07926 9 6 10.0472 6 11.3623ZM13.1281 11.3623C13.1281 12.6773 14.2074 13.7245 15.5125 13.7245C16.8177 13.7245 17.897 12.6773 17.897 11.3623C17.897 10.0472 16.8177 9 15.5125 9C14.2074 9 13.1281 10.0472 13.1281 11.3623ZM20.2312 11.3623C20.2312 12.6773 21.3104 13.7245 22.6156 13.7245C23.9207 13.7245 25 12.6773 25 11.3623C25 10.0472 23.9207 9 22.6156 9C21.3104 9 20.2312 10.0472 20.2312 11.3623Z" fill="black"/>
</svg>
