<svg width="37" height="38" viewBox="0 0 37 38" fill="none" xmlns="http://www.w3.org/2000/svg">
<g clip-path="url(#clip0_30_71)">
<path d="M26.2068 9.82917H26.2084C26.5487 9.82917 26.8766 9.96798 27.1194 10.2173C27.3624 10.4669 27.5 10.8068 27.5 11.1625V23.75C27.5 24.1057 27.3624 24.4456 27.1194 24.6952C26.8766 24.9445 26.5487 25.0833 26.2084 25.0833C25.868 25.0833 25.5401 24.9445 25.2974 24.6952C25.0544 24.4456 24.9167 24.1057 24.9167 23.75V14.915V14.2999L24.4876 14.7406L11.7072 27.8664L11.7064 27.8672C11.586 27.9918 11.4432 28.0904 11.2862 28.1576C11.1293 28.2247 10.9613 28.2592 10.7917 28.2592C10.6221 28.2592 10.4541 28.2247 10.2972 28.1576C10.1402 28.0904 9.99734 27.9918 9.87695 27.8672L9.87551 27.8657C9.75412 27.742 9.65743 27.5946 9.59132 27.4316C9.52521 27.2686 9.49109 27.0936 9.49109 26.9167C9.49109 26.7397 9.52521 26.5647 9.59132 26.4017C9.65743 26.2388 9.75412 26.0913 9.87551 25.9676L9.87644 25.9667L22.626 12.8409L23.0381 12.4167H22.4467H13.875C13.5346 12.4167 13.2068 12.2779 12.964 12.0285C12.721 11.7789 12.5834 11.4391 12.5834 11.0833C12.5834 10.7276 12.721 10.3877 12.964 10.1382C13.2066 9.889 13.5341 9.75021 13.8743 9.75C13.8745 9.75 13.8748 9.75 13.875 9.75L26.2068 9.82917Z" fill="black" stroke="black" stroke-width="0.5"/>
</g>
<defs>
<clipPath id="clip0_30_71">
<rect width="37" height="38" fill="white"/>
</clipPath>
</defs>
</svg>
