<svg width="28" height="24" viewBox="0 0 28 24" fill="none" xmlns="http://www.w3.org/2000/svg">
<path d="M20.5333 0C17.7203 0 15.2731 1.53969 14 3.81231C12.7269 1.53969 10.2797 0 7.46667 0C3.3432 0 0 3.30646 0 7.38462C0 17.5385 11.9999 24 14 24C16.0001 24 28 17.5385 28 7.38462C28 3.30646 24.6568 0 20.5333 0ZM7.46667 3.69231C5.40773 3.69231 3.73333 5.34831 3.73333 7.38462C3.73333 7.89415 3.3152 8.30769 2.8 8.30769C2.2848 8.30769 1.86667 7.89415 1.86667 7.38462C1.86667 4.33015 4.37827 1.84615 7.46667 1.84615C7.98187 1.84615 8.4 2.25969 8.4 2.76923C8.4 3.27877 7.98187 3.69231 7.46667 3.69231Z" fill="#111918"/>
</svg>
