<svg width="28" height="24" viewBox="0 0 28 24" fill="none" xmlns="http://www.w3.org/2000/svg">
<path d="M22.1597 0.257312C19.0596 -0.536396 15.9358 0.558167 14.0372 2.82358C14.0171 2.84758 13.982 2.84758 13.9628 2.82358C12.0633 0.558167 8.94044 -0.536396 5.84034 0.257312C2.09307 1.21731 -0.243396 4.83956 0.0202004 8.62125C0.691889 18.2855 11.9451 24 13.9996 24C16.054 24 27.3072 18.2855 27.9798 8.62211C28.2434 4.83956 25.9069 1.21731 22.1597 0.257312ZM13.9996 22.2857C12.4434 22.2806 2.11233 16.7529 1.7489 8.17897C1.63681 5.53642 3.17635 2.99501 5.71598 2.09073C8.6567 1.04416 11.7384 2.26644 13.186 4.73071C13.5547 5.35813 14.4444 5.35813 14.8122 4.73071C16.2598 2.26644 19.3415 1.04331 22.2823 2.09073C24.8219 2.99501 26.3614 5.53642 26.2493 8.17897C25.8868 16.7529 15.5557 22.2806 13.9996 22.2857ZM6.49714 3.343C5.83158 3.343 5.04342 3.685 4.398 4.31671C3.37164 5.32128 3.09491 6.67727 3.77886 7.34755C4.03282 7.59526 4.38311 7.7144 4.77544 7.7144C5.441 7.7144 6.22916 7.3724 6.87458 6.74069C7.90094 5.73699 8.17855 4.38014 7.4946 3.71072C7.24064 3.46215 6.89034 3.343 6.49714 3.343ZM6.96741 4.93214C6.88509 5.33499 6.62587 5.77299 6.25544 6.1347C5.7116 6.66784 5.13449 6.85726 4.77544 6.85726C4.65722 6.85726 4.49608 6.83669 4.398 6.74069C4.28415 6.62927 4.25 6.39955 4.30605 6.12527C4.38837 5.72327 4.64759 5.28442 5.01715 4.92271C5.56098 4.39043 6.13896 4.20014 6.49714 4.20014C6.61536 4.20014 6.7765 4.21986 6.87458 4.31671C6.98843 4.42814 7.02345 4.65785 6.96741 4.93214Z" fill="#111918"/>
</svg>
