<svg width="48" height="45" viewBox="0 0 48 45" fill="none" xmlns="http://www.w3.org/2000/svg">
<path d="M22.9031 22.2688H7.69914M7.2682 24.2618L4.7563 31.7653C3.38055 35.8748 2.69267 37.9295 3.18632 39.1948C3.615 40.2938 4.53572 41.1268 5.67185 41.444C6.98012 41.809 8.95612 40.9198 12.9081 39.1415L38.2441 27.7403C42.1016 26.0043 44.0303 25.1365 44.6263 23.9308C45.1443 22.8833 45.1443 21.6541 44.6263 20.6066C44.0303 19.4011 42.1016 18.533 38.2441 16.7972L12.8644 5.37637C8.92432 3.60335 6.9543 2.71682 5.64732 3.0805C4.51227 3.39632 3.59165 4.2272 3.16147 5.32402C2.66612 6.587 3.34665 8.63732 4.70772 12.738L7.27307 20.467C7.50682 21.1713 7.62372 21.5235 7.66985 21.8835C7.7108 22.2033 7.71037 22.5268 7.66862 22.8463C7.62155 23.2063 7.50377 23.558 7.2682 24.2618Z" stroke="black" stroke-width="4" stroke-linecap="round" stroke-linejoin="round"/>
</svg>
